<svg width="28" height="24" viewBox="0 0 28 24" fill="none" xmlns="http://www.w3.org/2000/svg">
<path d="M13.6642 0C8.02775 0 3.41606 4.61168 3.41606 10.2482V13.6642H1.70803C1.25503 13.6642 0.820589 13.8442 0.500271 14.1645C0.179953 14.4848 0 14.9193 0 15.3723L0 22.2044C0 22.6574 0.179953 23.0918 0.500271 23.4122C0.820589 23.7325 1.25503 23.9124 1.70803 23.9124H5.12409C5.57709 23.9124 6.01154 23.7325 6.33185 23.4122C6.65217 23.0918 6.83212 22.6574 6.83212 22.2044V10.2482C6.83212 6.45636 9.87242 3.41606 13.6642 3.41606C17.4561 3.41606 20.4964 6.45636 20.4964 10.2482V22.2044C20.4964 22.6574 20.6763 23.0918 20.9966 23.4122C21.317 23.7325 21.7514 23.9124 22.2044 23.9124H25.6205C26.0735 23.9124 26.5079 23.7325 26.8282 23.4122C27.1485 23.0918 27.3285 22.6574 27.3285 22.2044V15.3723C27.3285 14.9193 27.1485 14.4848 26.8282 14.1645C26.5079 13.8442 26.0735 13.6642 25.6205 13.6642H23.9124V10.2482C23.9124 4.61168 19.3007 0 13.6642 0Z" fill="white"/>
</svg>
