<svg width="29" height="30" viewBox="0 0 29 30" fill="none" xmlns="http://www.w3.org/2000/svg">
<path d="M12.5737 0.0371635C5.64019 0.0371635 0 5.87184 0 13.0444C0 20.217 5.64019 26.0516 12.5737 26.0516C14.6932 26.0516 16.7769 25.5314 18.5372 24.5279C18.6782 24.7035 18.8345 24.8652 19.0042 25.0111L22.5967 28.7274C22.9284 29.1136 23.3329 29.4255 23.7854 29.644C24.2378 29.8626 24.7287 29.9832 25.2279 29.9984C25.727 30.0136 26.2239 29.9231 26.688 29.7324C27.1521 29.5418 27.5736 29.255 27.9267 28.8897C28.2798 28.5245 28.5571 28.0884 28.7413 27.6083C28.9256 27.1281 29.0131 26.6141 28.9984 26.0978C28.9837 25.5814 28.8672 25.0736 28.6559 24.6056C28.4446 24.1375 28.1431 23.719 27.7698 23.3759L24.1774 19.6595C24.0024 19.4784 23.8097 19.3165 23.6026 19.1764C24.5725 17.3554 25.1833 15.2371 25.1833 13.0072C25.1833 5.83468 19.5431 0 12.6096 0L12.5737 0.0371635ZM12.5737 3.75352C17.5672 3.75352 21.5549 7.87867 21.5549 13.0444C21.5549 15.4972 20.6927 17.7642 19.1838 19.4365C19.1479 19.4737 19.112 19.5109 19.076 19.548C18.9064 19.6939 18.75 19.8556 18.609 20.0312C17.0283 21.5177 14.8729 22.3725 12.5377 22.3725C7.5442 22.3725 3.55655 18.2473 3.55655 13.0816C3.55655 7.91584 7.5442 3.79068 12.5377 3.79068L12.5737 3.75352Z" fill="white"/>
</svg>
