<svg width="38" height="29" viewBox="0 0 38 29" fill="none" xmlns="http://www.w3.org/2000/svg">
<path d="M2.02559 0.00964008C1.39559 0.110441 0.831427 0.457382 0.457223 0.97414C0.0830191 1.4909 -0.0705772 2.13514 0.0302236 2.76515C0.131024 3.39515 0.477965 3.95931 0.994723 4.33352C1.51148 4.70772 2.15573 4.86132 2.78573 4.76051H9.91204L10.3396 5.94823L12.2875 11.8868L14.2353 17.8254C14.4254 18.443 15.233 19.0131 15.8506 19.0131H32.4787C33.1438 19.0131 33.904 18.443 34.094 17.8254L37.9422 5.94823C38.1322 5.33062 37.8472 4.76051 37.1821 4.76051H16.0882L14.2828 1.33988C14.0906 0.947269 13.7937 0.615332 13.4248 0.380624C13.056 0.145917 12.6296 0.0175432 12.1925 0.00964008L2.69071 0.00964008C2.54848 -0.00321336 2.40537 -0.00321336 2.26313 0.00964008C2.1682 0.00393389 2.07301 0.00393389 1.97808 0.00964008L2.02559 0.00964008ZM17.0384 23.764C15.7081 23.764 14.6629 24.8092 14.6629 26.1394C14.6629 27.4697 15.7081 28.5149 17.0384 28.5149C18.3686 28.5149 19.4138 27.4697 19.4138 26.1394C19.4138 24.8092 18.3686 23.764 17.0384 23.764ZM31.291 23.764C29.9607 23.764 28.9155 24.8092 28.9155 26.1394C28.9155 27.4697 29.9607 28.5149 31.291 28.5149C32.6212 28.5149 33.6664 27.4697 33.6664 26.1394C33.6664 24.8092 32.6212 23.764 31.291 23.764Z" fill="white"/>
</svg>
