<svg width="14" height="28" viewBox="0 0 14 28" fill="none" xmlns="http://www.w3.org/2000/svg">
<path d="M10.3407 0C8.44489 0 6.89378 1.54575 6.89378 3.435C6.89378 5.32425 8.44489 6.87 10.3407 6.87C12.2365 6.87 13.7876 5.32425 13.7876 3.435C13.7876 1.54575 12.2365 0 10.3407 0ZM5.17034 8.5875C2.30942 8.5875 0 10.889 0 13.74H3.44689C3.44689 12.7782 4.20521 12.0225 5.17034 12.0225C6.13547 12.0225 6.89378 12.7782 6.89378 13.74C6.89378 14.7018 3.44689 19.3734 3.44689 22.3275C3.44689 25.2816 5.75631 27.48 8.61723 27.48C11.4782 27.48 13.7876 25.1785 13.7876 22.3275H10.3407C10.3407 23.2893 9.58236 24.045 8.61723 24.045C7.6521 24.045 6.89378 23.2893 6.89378 22.3275C6.89378 21.0909 10.3407 16.0071 10.3407 13.74C10.3407 10.9577 8.03126 8.5875 5.17034 8.5875Z" fill="white"/>
</svg>
