<svg width="99" height="80" viewBox="0 0 99 80" fill="none" xmlns="http://www.w3.org/2000/svg">
<g clip-path="url(#clip0_6_6)">
<path d="M49.1252 0.700012L98.25 30.1943V49.7981L49.1252 79.3L0 49.7981V30.1945L49.1252 0.700012Z" fill="#A5B4FC"/>
<path fill-rule="evenodd" clip-rule="evenodd" d="M0 30.1943L49.125 0.700012L98.25 30.1943V49.7981L49.125 79.3L0 49.7981V30.1943ZM49.125 66.7849L87.829 43.5413V36.4534L87.8271 36.4522L49.125 59.6887L10.4229 36.4522L10.421 36.4534V43.5413L49.125 66.7849ZM49.125 48.8516L78.8 31.0349L71.571 26.6966L49.125 40.1731L26.679 26.6966L19.45 31.0349L49.125 48.8516ZM49.125 29.336L62.544 21.2793L49.125 13.2262L35.706 21.2793L49.125 29.336Z" fill="#0F27A2"/>
<path d="M49.1252 0.700012L0 30.1945V49.7981L49.125 79.3L49.1252 0.700012Z" fill="#A5B4FC" fill-opacity="0.3"/>
</g>
<defs>
<clipPath id="clip0_6_6">
<rect width="98.25" height="78.6" fill="white" transform="translate(0 0.700012)"/>
</clipPath>
</defs>
</svg>
