<svg width="29" height="28" viewBox="0 0 29 28" fill="none" xmlns="http://www.w3.org/2000/svg">
<path d="M20.2999 11.2C20.2999 12.6852 19.6889 14.1096 18.6011 15.1598C17.5134 16.21 16.0382 16.8 14.4999 16.8C12.9617 16.8 11.4864 16.21 10.3987 15.1598C9.311 14.1096 8.69993 12.6852 8.69993 11.2C8.69993 9.71479 9.311 8.29041 10.3987 7.24021C11.4864 6.19 12.9617 5.60001 14.4999 5.60001C16.0382 5.60001 17.5134 6.19 18.6011 7.24021C19.6889 8.29041 20.2999 9.71479 20.2999 11.2Z" fill="white"/>
<path fill-rule="evenodd" clip-rule="evenodd" d="M13.9084 27.9888C6.17483 27.6892 0 21.5404 0 14C0 6.2678 6.49165 0 14.5 0C22.5084 0 29 6.2678 29 14C29 21.7322 22.5084 28 14.5 28H14.3014C14.1699 28 14.0389 27.9963 13.9084 27.9888ZM5.19535 22.834C5.08694 22.5334 5.05003 22.2131 5.08738 21.8968C5.12473 21.5806 5.23537 21.2765 5.41109 21.0072C5.58681 20.7379 5.8231 20.5102 6.10241 20.3411C6.38173 20.1721 6.6969 20.0659 7.02453 20.0305C12.6766 19.4264 16.3582 19.481 21.9827 20.0431C22.3108 20.0761 22.6267 20.1809 22.9065 20.3496C23.1863 20.5183 23.4225 20.7464 23.5971 21.0166C23.7718 21.2868 23.8803 21.5918 23.9143 21.9086C23.9484 22.2254 23.9072 22.5454 23.7938 22.8445C26.2045 20.4897 27.5545 17.311 27.55 14C27.55 7.0413 21.7072 1.4 14.5 1.4C7.29278 1.4 1.45 7.0413 1.45 14C1.45 17.4412 2.87898 20.5604 5.19535 22.834Z" fill="white"/>
</svg>
