<svg width="29" height="29" viewBox="0 0 29 29" fill="none" xmlns="http://www.w3.org/2000/svg">
<path d="M20.3 11.6C20.3 13.1382 19.6889 14.6135 18.6012 15.7012C17.5135 16.7889 16.0382 17.4 14.5 17.4C12.9617 17.4 11.4864 16.7889 10.3987 15.7012C9.31102 14.6135 8.69995 13.1382 8.69995 11.6C8.69995 10.0617 9.31102 8.58648 10.3987 7.49877C11.4864 6.41106 12.9617 5.79999 14.5 5.79999C16.0382 5.79999 17.5135 6.41106 18.6012 7.49877C19.6889 8.58648 20.3 10.0617 20.3 11.6Z" fill="white"/>
<path fill-rule="evenodd" clip-rule="evenodd" d="M13.9084 28.9884C6.17483 28.6781 0 22.3097 0 14.5C0 6.49165 6.49165 0 14.5 0C22.5084 0 29 6.49165 29 14.5C29 22.5084 22.5084 29 14.5 29H14.3014C14.1699 29 14.0389 28.9961 13.9084 28.9884ZM5.19535 23.6495C5.08694 23.3382 5.05004 23.0064 5.08738 22.6789C5.12473 22.3513 5.23537 22.0364 5.41109 21.7574C5.58681 21.4785 5.8231 21.2427 6.10241 21.0676C6.38173 20.8925 6.6969 20.7825 7.02453 20.7459C12.6766 20.1202 16.3582 20.1767 21.9827 20.7589C22.3108 20.7931 22.6267 20.9017 22.9065 21.0764C23.1863 21.2511 23.4225 21.4874 23.5971 21.7672C23.7718 22.047 23.8803 22.363 23.9143 22.691C23.9484 23.0191 23.9072 23.3506 23.7938 23.6604C26.2045 21.2215 27.5545 17.9292 27.55 14.5C27.55 7.29277 21.7072 1.45 14.5 1.45C7.29277 1.45 1.45 7.29277 1.45 14.5C1.45 18.0641 2.87898 21.2947 5.19535 23.6495Z" fill="white"/>
</svg>
